<svg id="Layer_1" data-name="Layer 1" xmlns="http://www.w3.org/2000/svg" viewBox="0 0 118.89 66.38"><defs><style>.cls-1{fill:#272a44;}.cls-2{fill:#049bd8;}.cls-3{fill:#2885c6;}</style></defs><path class="cls-1" d="M23.56,69.3a10.26,10.26,0,0,1-8,4,.66.66,0,0,1-.23,0,10.34,10.34,0,0,1,0-20.67h.23a10.24,10.24,0,0,1,8,4,4.53,4.53,0,0,1-5.32,1.32,4.13,4.13,0,0,0-.63-.32,5.52,5.52,0,0,0-2.27-.46,5.75,5.75,0,0,0,0,11.49,5.38,5.38,0,0,0,2.27-.49,4.13,4.13,0,0,0,.63-.32A4.6,4.6,0,0,1,20,67.63,4.53,4.53,0,0,1,23.56,69.3Z" transform="translate(-5.01 -30.62)"/><path class="cls-2" d="M90.56,61.64a31,31,0,1,1-31-31,31,31,0,0,1,31,31" transform="translate(-5.01 -30.62)"/><path class="cls-3" d="M100,79.11a17.89,17.89,0,1,1-17.89-17.9A17.89,17.89,0,0,1,100,79.11" transform="translate(-5.01 -30.62)"/><path class="cls-1" d="M44.38,73.37H42a4.37,4.37,0,0,1-3.79-2L34,63l-2.79,5.8h3.88a4.6,4.6,0,0,1-4.59,4.59H23.7L34,52.7Z" transform="translate(-5.01 -30.62)"/><path class="cls-1" d="M62.64,73.37a4.58,4.58,0,0,1-3.56-1.69L50,62.14v6.64a4.6,4.6,0,0,1-4.6,4.59V52.7a4.61,4.61,0,0,1,3.51,1.61l9.13,9.62V57.29a4.6,4.6,0,0,1,4.59-4.59Z" transform="translate(-5.01 -30.62)"/><path class="cls-1" d="M82.17,63a10,10,0,0,1-1.75,5.71,10.3,10.3,0,0,1-6.29,4.36,9.25,9.25,0,0,1-2,.23c-.08,0-7.15,0-7.15,0a4.65,4.65,0,0,1,4.6-4.59H72A5.72,5.72,0,0,0,77.58,63v0a5.74,5.74,0,0,0-5.75-5.72,5.89,5.89,0,0,0-2.29.46V63a4.59,4.59,0,0,1-4.6,4.59V55.31A10,10,0,0,1,69.54,53a9.57,9.57,0,0,1,2.29-.26,10.31,10.31,0,0,1,8.59,4.56A10.45,10.45,0,0,1,82.17,63Z" transform="translate(-5.01 -30.62)"/><path class="cls-1" d="M104.66,63A10.34,10.34,0,1,1,94.32,52.7,10.33,10.33,0,0,1,104.66,63Zm-4.6,0a5.74,5.74,0,1,0-5.74,5.74A5.76,5.76,0,0,0,100.06,63Z" transform="translate(-5.01 -30.62)"/><path class="cls-1" d="M123.9,72a4.56,4.56,0,0,1-6.49,0l-6.15-6.11v7.49a4.6,4.6,0,0,1-4.59-4.59v-8h8.61a1.73,1.73,0,1,0,0-3.45h-4a4.61,4.61,0,0,1-4.59-4.59h8.61A6.33,6.33,0,0,1,121.6,59,6.41,6.41,0,0,1,117,65.1Z" transform="translate(-5.01 -30.62)"/></svg>