<svg id="Layer_1" data-name="Layer 1" xmlns="http://www.w3.org/2000/svg" viewBox="0 0 118.25 118.25"><defs><style>.cls-1{fill:#049bd8;}.cls-2{fill:#fff;}</style></defs><circle class="cls-1" cx="59.12" cy="59.12" r="59.12"/><path class="cls-2" d="M91.56,96.91l-22-22a.31.31,0,0,0-.41,0,20.54,20.54,0,0,1-6.24,3.37,24.29,24.29,0,0,1-8,1.28,24,24,0,0,1-16.34-6A25.4,25.4,0,0,1,30,52.73a23.76,23.76,0,0,1,7.19-15.48A24,24,0,0,1,54.81,30a23.77,23.77,0,0,1,17.53,7.27A24,24,0,0,1,79.56,54.8a24.21,24.21,0,0,1-1.23,7.76,23.59,23.59,0,0,1-3.52,6.66.31.31,0,0,0,0,.4L96.92,91.53a3.81,3.81,0,0,1,0,5.38h0A3.8,3.8,0,0,1,91.56,96.91ZM54.87,72.19A16.57,16.57,0,0,0,67.14,67.1a16.9,16.9,0,0,0,5-12.32,16.87,16.87,0,0,0-5-12.31,16.58,16.58,0,0,0-12.27-5.09,17.19,17.19,0,0,0-14,6.82,16,16,0,0,0-3.43,8.37,17.08,17.08,0,0,0,5,14.53A16.9,16.9,0,0,0,54.87,72.19Z" transform="translate(-4.88 -4.88)"/></svg>